<svg xmlns="http://www.w3.org/2000/svg" width="512" height="512" viewBox="0 0 61.59 61.59"><path d="M55.814 0h-5.773l-7.699.021v9.603h7.699c1.062 0 1.925.861 1.925 1.925v26.945a1.926 1.926 0 0 1-1.925 1.925h-7.699v7.699a1.926 1.926 0 0 1-1.925 1.924H21.171a1.924 1.924 0 0 1-1.925-1.924v-7.699h-7.699a1.924 1.924 0 0 1-1.924-1.925V11.548c0-1.063.861-1.925 1.924-1.925h7.699V0H5.774A5.772 5.772 0 0 0 0 5.773v50.042a5.774 5.774 0 0 0 5.774 5.774h50.042a5.775 5.775 0 0 0 5.773-5.774V5.773A5.773 5.773 0 0 0 55.814 0zM31.137 42.616L44.609 23.02h-9.625V0h-7.692v23.02h-9.627l13.472 19.596z" fill="#d22856"/></svg>