<svg xmlns="http://www.w3.org/2000/svg" viewBox="0 0 160.9 91.4"><path d="M79.9 59.6h2.9s.9-.1 1.3-.6c.4-.4.4-1.3.4-1.3s-.1-3.9 1.7-4.4c1.8-.6 4 3.7 6.4 5.4 1.8 1.3 3.2 1 3.2 1l6.4-.1s3.4-.2 1.8-2.8c-.1-.2-.9-1.9-4.8-5.5-4-3.7-3.5-3.1 1.4-9.6 3-4 4.1-6.4 3.8-7.4-.4-1-2.5-.7-2.5-.7h-7.3s-.5-.1-.9.2-.6.8-.6.8-1.1 3.1-2.7 5.7c-3.2 5.5-4.6 5.8-5.1 5.4-1.2-.8-.9-3.2-.9-4.9 0-5.3.8-7.5-1.6-8.1-.8-.2-1.4-.3-3.4-.3-2.6 0-4.8 0-6 .6-.8.4-1.5 1.3-1.1 1.3.5.1 1.6.3 2.1 1.1.7 1 .7 3.3.7 3.3s.4 6.3-1 7c-1 .5-2.3-.6-5.2-5.5-1.5-2.5-2.6-5.4-2.6-5.4s-.2-.5-.6-.8c-.5-.3-1.1-.4-1.1-.4h-6.9s-1 0-1.4.5c-.3.4 0 1.2 0 1.2s5.4 12.6 11.5 19c5.7 5.6 12.1 5.3 12.1 5.3z"/></svg>