<svg id="Слой_1" xmlns="http://www.w3.org/2000/svg" viewBox="0 0 205 78.3"><style>.st0{fill:#40bffc}.st1{fill:#d22856}</style><path class="st0" d="M21.3 16.1c-2.1-1.5-3.3-3-3.2-4.6.4-4.3 10.5-6.8 22.5-5.6 2.7.3 5.5.7 8.1 1.4-2.9-.9-6.3-1.5-9.9-1.9-12-1.2-22.1 1.3-22.5 5.6-.2 1.8 1.5 3.7 4.3 5.3.6.3 1.1.2.7-.2z"/><path class="st1" d="M9.7 30c-1.8-1.7-2.7-3.5-2.5-5.2.7-6.5 15.9-10.3 34.1-8.5 4.4.4 8.6 1.2 12.4 2.1-4.5-1.3-9.6-2.3-15-2.8-18.2-1.8-33.5 2-34.1 8.5-.2 2.2 1.2 4.3 3.8 6.3.7 0 1.7.9 1.3-.4z"/><path class="st0" d="M8.8 46.1c-3.9-2.5-6.1-5.3-5.9-8.1.7-7.1 17.5-11.3 37.4-9.3 4.9.5 9.5 1.3 13.7 2.3-4.9-1.4-10.5-2.5-16.5-3.1-20-2-36.7 2.2-37.4 9.3-.3 3.2 2.7 6.5 8 9.4.7.2 1.4.2.7-.5z"/><path class="st1" d="M13.6 62.3c-6-2.8-9.6-6.2-9.3-9.5.7-6.5 15.9-10.3 34.1-8.5 4.4.4 8.6 1.2 12.4 2.1-4.5-1.3-9.6-2.3-15-2.8-18.2-1.8-33.5 2-34.1 8.5-.4 3.8 4.3 7.6 11.8 10.5.6.3 1 0 .1-.3z"/><path class="st0" d="M21.6 71.9C16.7 70 13.7 67.4 14 65c.4-4.3 10.5-6.8 22.5-5.6 2.9.3 5.7.8 8.2 1.4-2.9-.9-6.3-1.5-9.9-1.9-12-1.2-22.1 1.3-22.5 5.6-.3 2.8 3.5 5.6 9.4 7.6.5.4.4-.1-.1-.2z"/><path class="st0" d="M18.7 35.8C21.7 21 29.7 8.5 40.3 0c-11.9 7.7-20.9 20.1-24 35.3-3.1 15.1.3 30 8.3 41.8-6.5-11.9-8.9-26.5-5.9-41.3zm16.1 2.6c3-14.8 8.2-27.9 14.3-37.2-6.7 8.8-12.4 21.9-15.5 37s-2.9 29.4-.2 40.1c-1.9-11-1.6-25 1.4-39.9z"/><path class="st1" d="M69.2 14.8c0 1.4-.3 2.6-.8 3.7-.6 1.1-1.3 1.9-2.4 2.4s-2.2.8-3.6.8c-2.1 0-3.8-.6-5-1.9-1.2-1.2-1.8-2.9-1.8-5.1s.6-3.8 1.8-5 2.9-1.8 5-1.8 3.8.6 5 1.8 1.8 2.9 1.8 5.1zm-2.9 0c0-1.5-.3-2.6-1-3.4-.7-.8-1.7-1.2-2.9-1.2-1.3 0-2.2.4-2.9 1.2s-1 2-1 3.4c0 1.5.4 2.6 1.1 3.5.7.8 1.7 1.3 2.9 1.3 1.3 0 2.2-.4 2.9-1.2.6-.9.9-2.1.9-3.6z"/><path class="st0" d="M76.6 11.7c1.6 0 2.8.4 3.5 1.2.8.8 1.1 2.1 1.1 3.7 0 1.7-.4 2.9-1.3 3.8-.9.8-2.2 1.2-3.9 1.2-1.8 0-3.1-.5-3.9-1.5s-1.3-2.6-1.3-4.7c0-1.1.1-2 .2-2.9.2-.8.4-1.5.8-2.1s.8-1.1 1.4-1.5 1.3-.7 2.1-1c.8-.2 2.6-.5 5.4-.9v2.2c-1.4.1-2.7.3-3.9.5-1.3.2-2.2.5-2.7.8-.6.3-1 .8-1.2 1.4-.2.6-.4 1.5-.4 2.6.6-1.8 2-2.8 4.1-2.8zm1.9 5.1c0-1.1-.2-1.9-.5-2.4-.4-.5-.9-.8-1.7-.8-.9 0-1.5.3-1.9.8s-.6 1.3-.6 2.4.2 1.9.6 2.4 1 .8 1.8.8c.9 0 1.5-.3 1.9-.8.2-.6.4-1.4.4-2.4zm12.3-1.4c1.5 0 2.6.2 3.4.7.7.5 1.1 1.3 1.1 2.3s-.4 1.8-1.1 2.3c-.8.5-1.9.8-3.3.8h-5.1V13h-3.6v-1.8h6.3v4.2h2.3zm-2.4 4.5h1.8c.8 0 1.4-.1 1.8-.3.4-.2.5-.6.5-1.1s-.2-.9-.5-1.1-.9-.3-1.8-.3h-1.8v2.8zm13.2 1.8c-1.6 0-2.7-.5-3.6-1.4-.8-.9-1.3-2.3-1.3-4s.4-3 1.3-3.9c.8-.9 2-1.4 3.6-1.4 1.5 0 2.6.5 3.4 1.5s1.2 2.4 1.2 4.3v.1h-6.6c0 1 .2 1.8.6 2.3s.9.8 1.6.8c.9 0 1.5-.4 1.8-1.2l2.5.2c-.7 1.8-2.2 2.7-4.5 2.7zm0-9c-.6 0-1.1.2-1.5.7-.3.4-.5 1.1-.5 1.8h4c-.1-.8-.3-1.5-.6-1.9-.3-.4-.8-.6-1.4-.6zm7.8 8.8v3.9h-2.3v-5.7h1.2c.5-.7.9-1.7 1.2-3.1.3-1.4.6-3.2.9-5.4h7.2v8.5h1.4v5.7h-2.3v-3.9h-7.3zm5.5-8.5h-2.3c-.4 3.3-1 5.5-1.6 6.7h3.9V13zm8.3-1.8v4.6c0 .3 0 .8-.1 1.4 0 .6-.1 1.1-.1 1.3l4.3-7.4h2.7v10.3h-2.5v-5.2c0-.3 0-.7.1-1.2 0-.5.1-.8.1-1l-4.2 7.4h-2.9V11.2h2.6zm12.2 0v4.1h3.7v-4.1h2.7v10.3h-2.7v-4.4h-3.7v4.4h-2.7V11.2h2.7zm13.4 10.5c-1.6 0-2.7-.5-3.6-1.4-.8-.9-1.3-2.3-1.3-4s.4-3 1.3-3.9c.8-.9 2-1.4 3.6-1.4 1.5 0 2.6.5 3.4 1.5s1.2 2.4 1.2 4.3v.1h-6.6c0 1 .2 1.8.6 2.3.4.5.9.8 1.6.8.9 0 1.5-.4 1.8-1.2l2.5.2c-.8 1.8-2.3 2.7-4.5 2.7zm0-9c-.6 0-1.1.2-1.5.7-.3.4-.5 1.1-.5 1.8h4c-.1-.8-.3-1.5-.6-1.9-.4-.4-.9-.6-1.4-.6zm9.3-1.5v4.1h3.7v-4.1h2.7v10.3h-2.7v-4.4h-3.7v4.4h-2.7V11.2h2.7zm11.8 0v4.1h3.7v-4.1h2.7v10.3h-2.7v-4.4h-3.7v4.4h-2.7V11.2h2.7zm14.4 4.2c1.5 0 2.6.2 3.4.7.8.5 1.2 1.3 1.2 2.3s-.4 1.8-1.2 2.3-1.9.8-3.4.8H179V11.2h2.7v4.2h2.6zm-2.6 4.5h2c.8 0 1.4-.1 1.8-.3.4-.2.6-.6.6-1.1s-.2-.8-.6-1.1c-.4-.2-1-.3-1.8-.3h-2v2.8zm8.6 1.6V11.2h2.7v10.3h-2.7zm7.9-10.3v4.6c0 .3 0 .8-.1 1.4 0 .6-.1 1.1-.1 1.3l4.3-7.4h2.7v10.3h-2.5v-5.2c0-.3 0-.7.1-1.2 0-.5.1-.8.1-1l-4.2 7.4h-2.9V11.2h2.6zm2.2-1c-1.3 0-2.2-.3-2.9-.8-.6-.5-1-1.3-1-2.5h2.1c.1 1.3.6 1.9 1.7 1.9s1.7-.6 1.7-1.9h2.1c-.1 1.1-.4 1.9-1 2.5-.4.6-1.4.8-2.7.8z"/><path class="st1" d="M68 41.2c0 1.2-.5 2.2-1.4 2.8-.9.7-2.2 1-3.8 1h-6.7V31.6h6.2c1.6 0 2.9.3 3.7.9.8.6 1.3 1.4 1.3 2.5 0 .8-.2 1.4-.6 1.9s-1.1.9-1.9 1.1c1.1.1 1.9.5 2.5 1 .4.5.7 1.2.7 2.2zm-3.6-5.9c0-.6-.2-1-.6-1.3s-1-.4-1.7-.4h-3.2V37h3.2c.8 0 1.4-.1 1.7-.4.4-.3.6-.7.6-1.3zm.8 5.6c0-1.3-.9-1.9-2.7-1.9h-3.6v3.9h3.7c.9 0 1.6-.2 2-.5s.6-.8.6-1.5z"/><path class="st0" d="M72.8 34.7v4.6c0 .3 0 .8-.1 1.4 0 .6-.1 1.1-.1 1.3l4.3-7.4h2.7V45h-2.5v-5.2c0-.3 0-.7.1-1.2 0-.5.1-.8.1-1L73.1 45h-2.9V34.7h2.6zm12.8 10.5c-1.1 0-2.1-.3-2.8-.8-.7-.5-1.2-1.2-1.4-2.2l2.3-.4c.1.5.3.8.7 1.1.3.3.7.4 1.2.4s.9-.1 1.2-.4c.3-.3.4-.6.4-1 0-.5-.2-.9-.6-1.2-.4-.2-1.2-.4-2.2-.4v-1.7c1 0 1.6-.1 2.1-.3.4-.2.6-.6.6-1.1 0-.4-.1-.7-.4-.9-.2-.2-.6-.3-1.1-.3s-.9.1-1.2.4c-.3.2-.5.6-.5 1l-2.3-.2c.2-.9.6-1.6 1.3-2.1.7-.5 1.7-.7 2.8-.7 1.1 0 2.1.2 2.8.7.7.5 1.1 1.1 1.1 1.9 0 .6-.2 1.1-.6 1.6-.4.4-1 .7-1.8.9.8.1 1.5.4 2 .8.5.5.7 1 .7 1.7 0 1-.4 1.7-1.2 2.3-.6.6-1.7.9-3.1.9zm15.7-5.4c0 1.7-.5 3-1.4 3.9-.9 1-2.2 1.4-3.9 1.4-1.6 0-2.9-.5-3.8-1.4-.9-1-1.4-2.3-1.4-3.9 0-1.7.5-3 1.4-3.9.9-1 2.2-1.4 3.8-1.4 1.7 0 3 .5 3.9 1.4 1 .9 1.4 2.2 1.4 3.9zm-2.8 0c0-1.2-.2-2.1-.6-2.7-.4-.6-1-.8-1.7-.8-1.6 0-2.4 1.2-2.4 3.5 0 1.2.2 2 .6 2.6s1 .9 1.7.9c1.6.1 2.4-1.1 2.4-3.5zm10.1-5.1c3 0 4.5.9 4.5 2.6 0 .6-.2 1.1-.6 1.5s-1 .7-1.7.8v.1c.9.1 1.5.4 1.9.8.4.4.7 1 .7 1.7 0 1-.4 1.7-1.1 2.2-.8.5-1.8.7-3.2.7h-5.5V34.7h5zm-2.5 1.6v2.5h2c.8 0 1.3-.1 1.6-.3.3-.2.5-.5.5-1 0-.4-.2-.7-.5-.9s-.8-.3-1.5-.3h-2.1zm0 7h2.2c.8 0 1.4-.1 1.8-.3.3-.2.5-.6.5-1.1s-.2-.9-.5-1.1c-.4-.2-1-.3-1.9-.3h-2.1v2.8zm14.7-4.5c1.5 0 2.6.2 3.4.7s1.2 1.3 1.2 2.3-.4 1.8-1.2 2.3c-.8.5-1.9.8-3.4.8h-5.3V34.7h2.7v4.2h2.6v-.1zm-2.6 4.5h2c.8 0 1.4-.1 1.8-.3s.6-.6.6-1.1-.2-.8-.6-1.1c-.4-.2-1-.3-1.8-.3h-2v2.8zm8.6 1.7V34.7h2.7V45h-2.7zm7.9-10.3v4.6c0 .3 0 .8-.1 1.4 0 .6-.1 1.1-.1 1.3l4.3-7.4h2.7V45H139v-5.2c0-.3 0-.7.1-1.2 0-.5.1-.8.1-1L135 45h-2.9V34.7h2.6zm2.2-1c-1.3 0-2.2-.3-2.9-.8-.6-.5-1-1.3-1-2.5h2.1c.1 1.3.6 1.9 1.7 1.9s1.7-.6 1.7-1.9h2.1c-.1 1.1-.4 1.9-1 2.5-.5.5-1.4.8-2.7.8z"/><path class="st1" d="M66.5 72.4v-3.9H56.1V55h2.8v11.1h5.4V55H67v11.1h1.9v6.2h-2.4v.1z"/><path class="st0" d="M74.9 68.7c-1.6 0-2.7-.5-3.6-1.4-.8-.9-1.3-2.3-1.3-4 0-1.7.4-3 1.3-3.9.8-.9 2-1.4 3.6-1.4 1.5 0 2.6.5 3.4 1.5s1.2 2.4 1.2 4.3v.1h-6.6c0 1 .2 1.8.6 2.3s.9.8 1.6.8c.9 0 1.5-.4 1.8-1.2l2.5.2c-.8 1.7-2.3 2.7-4.5 2.7zm0-9.1c-.6 0-1.1.2-1.5.7-.3.4-.5 1.1-.5 1.8h4c-.1-.8-.3-1.5-.6-1.9-.3-.4-.8-.6-1.4-.6zm9.3-1.5v4.1h3.7v-4.1h2.7v10.3h-2.7V64h-3.7v4.4h-2.7V58.1h2.7zm8.3 0h8.5v1.8h-2.9v8.5h-2.7v-8.5h-2.9v-1.8zm20.2 5.1c0 1.7-.3 3.1-1 4-.7.9-1.7 1.4-2.9 1.4-.7 0-1.4-.2-1.9-.5s-.9-.8-1.2-1.4h-.1c0 .2.1.8.1 1.7v4H103v-12c0-1 0-1.8-.1-2.4h2.6c0 .1.1.3.1.7v1c.6-1.3 1.7-1.9 3.3-1.9 1.2 0 2.1.5 2.8 1.4.7 1 1 2.3 1 4zm-2.8 0c0-2.3-.7-3.5-2.1-3.5-.7 0-1.3.3-1.6.9-.4.6-.6 1.5-.6 2.6s.2 2 .6 2.6c.4.6.9.9 1.6.9 1.4.1 2.1-1.1 2.1-3.5z"/></svg>