<svg id="Слой_1" xmlns="http://www.w3.org/2000/svg" viewBox="0 0 130 49.7"><style>.st0{fill:#40bffc}.st1{fill:#d22856}</style><path class="st0" d="M13.5 10.2c-1.3-1-2.1-1.9-2-2.9.3-2.7 6.7-4.3 14.3-3.6 1.7.2 3.5.4 5.1.9-1.8-.6-4-1-6.3-1.2-7.6-.7-14.1.9-14.3 3.6-.1 1.1 1 2.3 2.7 3.4.4.1.7.1.5-.2z"/><path class="st1" d="M6.1 19c-1.1-1-1.7-2.2-1.6-3.3.4-4.1 10.1-6.5 21.6-5.4 2.8.3 5.5.8 7.9 1.3-2.9-.8-6.1-1.5-9.5-1.8-11.5-1-21.3 1.4-21.6 5.5-.1 1.4.8 2.7 2.4 4 .4 0 1.1.6.8-.3z"/><path class="st0" d="M5.5 29.2c-2.5-1.6-3.9-3.4-3.7-5.1.4-4.5 11.1-7.2 23.7-5.9 3.1.3 6 .8 8.7 1.5-3.1-.9-6.7-1.6-10.5-2C11.1 16.4.5 19.1 0 23.6c-.2 2 1.7 4.1 5.1 6 .4.1.9.1.4-.4z"/><path class="st1" d="M8.6 39.5c-3.8-1.8-6.1-3.9-5.9-6 .4-4.1 10.1-6.5 21.6-5.4 2.8.3 5.5.8 7.9 1.3-2.9-.8-6.1-1.5-9.5-1.8C11.1 26.5 1.4 28.9 1 33.1c-.3 2.4 2.7 4.8 7.5 6.7.4.1.6-.1.1-.3z"/><path class="st0" d="M13.7 45.6c-3.1-1.2-5-2.9-4.8-4.4.3-2.7 6.7-4.3 14.3-3.6 1.8.2 3.6.5 5.2.9-1.8-.6-4-1-6.3-1.2-7.6-.8-14 .8-14.3 3.6-.2 1.8 2.2 3.6 6 4.8.2.3.2 0-.1-.1z"/><path class="st0" d="M11.8 22.7c1.9-9.4 7-17.3 13.7-22.7C18 4.9 12.3 12.8 10.3 22.4c-2 9.6.2 19 5.3 26.5-4.2-7.5-5.7-16.8-3.8-26.2zM22 24.4C23.9 15 27.2 6.7 31.1.8c-4.3 5.6-7.9 13.9-9.8 23.5s-1.8 18.7-.1 25.4c-1.3-7-1.1-15.9.8-25.3z"/><path class="st1" d="M43.8 9.4c0 .9-.2 1.6-.5 2.3-.4.7-.8 1.2-1.5 1.5-.7.3-1.4.5-2.3.5-1.3 0-2.4-.4-3.2-1.2-.8-.8-1.1-1.8-1.1-3.2s.4-2.4 1.1-3.2c.8-.7 1.9-1.1 3.2-1.1 1.3 0 2.4.4 3.2 1.1s1.1 1.9 1.1 3.3zm-1.8 0c0-1-.2-1.6-.6-2.2s-1.1-.8-1.8-.8c-.8 0-1.4.3-1.8.8s-.6 1.3-.6 2.2c0 1 .3 1.6.7 2.2.4.5 1.1.8 1.8.8.8 0 1.4-.3 1.8-.8.3-.5.5-1.3.5-2.2z"/><path class="st0" d="M48.5 7.4c1 0 1.8.3 2.2.8.5.5.7 1.3.7 2.3 0 1.1-.3 1.8-.8 2.4-.6.5-1.4.8-2.5.8s-2-.3-2.5-1c-.5-.6-.8-1.6-.8-3 0-.7.1-1.3.1-1.8.1-.5.3-1 .5-1.3.3-.4.5-.7.9-1s.8-.4 1.3-.6c.5-.1 1.6-.3 3.4-.6v1.4c-.9.1-1.7.2-2.5.3-.8.1-1.4.3-1.7.5-.4.2-.6.5-.8.9-.1.4-.3 1-.3 1.6.6-1 1.5-1.7 2.8-1.7zm1.2 3.3c0-.7-.1-1.2-.3-1.5-.3-.3-.6-.5-1.1-.5-.6 0-1 .2-1.2.5s-.4.8-.4 1.5.1 1.2.4 1.5c.3.3.6.5 1.1.5.6 0 1-.2 1.2-.5.2-.4.3-.9.3-1.5zm7.9-.9c1 0 1.6.1 2.2.4.4.3.7.8.7 1.5 0 .6-.3 1.1-.7 1.5-.5.3-1.2.5-2.1.5h-3.2V8.2h-2.3V7.1h4v2.7h1.4zM56 12.6h1.1c.5 0 .9-.1 1.1-.2.3-.1.3-.4.3-.7 0-.3-.1-.6-.3-.7-.2-.1-.6-.2-1.1-.2H56v1.8zm8.4 1.2c-1 0-1.7-.3-2.3-.9-.5-.6-.8-1.5-.8-2.5s.3-1.9.8-2.5c.5-.6 1.3-.9 2.3-.9 1 0 1.6.3 2.2 1s.8 1.5.8 2.7v.1h-4.2c0 .6.1 1.1.4 1.5s.6.5 1 .5c.6 0 1-.3 1.1-.8l1.6.1c-.5 1.1-1.4 1.7-2.9 1.7zm0-5.7c-.4 0-.7.1-1 .4-.2.3-.3.7-.3 1.1h2.5c-.1-.5-.2-1-.4-1.2-.1-.2-.4-.3-.8-.3zm5 5.5v2.5h-1.5v-3.6h.8c.3-.4.6-1.1.8-2 .2-.9.4-2 .6-3.4h4.6v5.4h.9v3.6H74v-2.5h-4.6zm3.4-5.4h-1.5c-.3 2.1-.6 3.5-1 4.3h2.5V8.2zm5.3-1.1V10c0 .2 0 .5-.1.9 0 .4-.1.7-.1.8L80.7 7h1.7v6.5h-1.6v-3.3c0-.2 0-.4.1-.8 0-.2.1-.4.1-.5l-2.7 4.7h-1.8V7.1h1.6zm7.7 0v2.6h2.3V7.1h1.7v6.5h-1.7v-2.8h-2.3v2.8h-1.7V7.1h1.7zm8.5 6.7c-1 0-1.7-.3-2.3-.9-.5-.6-.8-1.5-.8-2.5s.3-1.9.8-2.5c.6-.6 1.3-.9 2.3-.9 1 0 1.6.3 2.2 1s.8 1.5.8 2.7v.1h-4.2c0 .6.1 1.1.4 1.5.3.3.6.5 1 .5.6 0 1-.3 1.1-.8l1.6.1c-.5 1.1-1.5 1.7-2.9 1.7zm0-5.7c-.4 0-.7.1-1 .4-.2.3-.3.7-.3 1.1h2.5c-.1-.5-.2-1-.4-1.2-.1-.2-.4-.3-.8-.3zm5.9-1v2.6h2.3V7.1h1.7v6.5h-1.7v-2.8h-2.3v2.8h-1.7V7.1h1.7zm7.5 0v2.6h2.3V7.1h1.7v6.5H110v-2.8h-2.3v2.8H106V7.1h1.7zm9.2 2.7c1 0 1.6.1 2.2.4.5.3.8.8.8 1.5 0 .6-.3 1.1-.8 1.5s-1.2.5-2.2.5h-3.4V7.1h1.7v2.7h1.7zm-1.7 2.8h1.3c.5 0 .9-.1 1.1-.2.3-.1.4-.4.4-.7 0-.3-.1-.5-.4-.7-.3-.1-.6-.2-1.1-.2h-1.3v1.8zm5.5 1V7.1h1.7v6.5h-1.7zm5-6.5V10c0 .2 0 .5-.1.9 0 .4-.1.7-.1.8l2.7-4.7h1.7v6.5h-1.6v-3.3c0-.2 0-.4.1-.8 0-.3.1-.5.1-.6l-2.7 4.7H124V7.1h1.7zm1.4-.6c-.8 0-1.4-.2-1.8-.5-.4-.3-.6-.8-.6-1.6h1.3c.1.8.4 1.2 1.1 1.2.7 0 1.1-.4 1.1-1.2h1.3c-.1.7-.3 1.2-.6 1.6-.4.3-1 .5-1.8.5z"/><path class="st1" d="M43.1 26.1c0 .8-.3 1.4-.9 1.8-.6.4-1.4.6-2.4.6h-4.3V20h3.9c1 0 1.8.2 2.3.6.5.4.8.9.8 1.6 0 .5-.1.9-.4 1.2s-.7.6-1.2.7c.7.1 1.2.3 1.6.6.4.4.6.8.6 1.4zm-2.3-3.7c0-.4-.1-.6-.4-.8s-.6-.3-1.1-.3h-2v2.2h2c.5 0 .9-.1 1.1-.3.3-.2.4-.4.4-.8zm.5 3.5c0-.8-.6-1.2-1.7-1.2h-2.3v2.5h2.3c.6 0 1-.1 1.3-.3s.4-.5.4-1z"/><path class="st0" d="M46.1 22v2.9c0 .2 0 .5-.1.9 0 .4-.1.7-.1.8l2.7-4.7h1.7v6.6h-1.6v-3.3c0-.2 0-.4.1-.8 0-.3.1-.5.1-.6l-2.7 4.7h-1.8V22h1.7zm8.2 6.7c-.7 0-1.3-.2-1.8-.5-.4-.3-.8-.8-.9-1.4l1.5-.3c.1.3.2.5.4.7.2.2.4.3.8.3s.6-.1.8-.3c.2-.2.3-.4.3-.6 0-.3-.1-.6-.4-.8-.3-.1-.8-.3-1.4-.3v-1.1c.6 0 1-.1 1.3-.2.3-.1.4-.4.4-.7 0-.3-.1-.4-.3-.6-.1-.1-.4-.2-.7-.2s-.6.1-.8.3c-.2.1-.3.4-.3.6l-1.5-.1c.1-.6.4-1 .8-1.3.4-.3 1.1-.4 1.8-.4s1.3.1 1.8.4c.4.3.7.7.7 1.2 0 .4-.1.7-.4 1-.3.3-.6.4-1.1.6.5.1 1 .3 1.3.5.3.3.4.6.4 1.1 0 .6-.3 1.1-.8 1.5-.4.4-1.1.6-1.9.6zm9.9-3.5c0 1.1-.3 1.9-.9 2.5-.6.6-1.4.9-2.5.9-1 0-1.8-.3-2.4-.9-.6-.6-.9-1.5-.9-2.5 0-1.1.3-1.9.9-2.5.6-.6 1.4-.9 2.4-.9 1.1 0 1.9.3 2.5.9.7.6.9 1.5.9 2.5zm-1.8 0c0-.8-.1-1.3-.4-1.7-.2-.3-.6-.5-1-.5-1 0-1.5.8-1.5 2.2 0 .8.1 1.3.4 1.6.3.4.6.6 1.1.6.9.1 1.4-.6 1.4-2.2zm6.4-3.2c1.9 0 2.9.6 2.9 1.6 0 .4-.1.7-.4 1-.3.3-.6.4-1.1.5v.1c.6.1 1 .3 1.2.5.3.3.4.6.4 1.1 0 .6-.3 1.1-.7 1.4-.5.3-1.1.4-2 .4h-3.5V22h3.2zm-1.5 1v1.6h1.3c.5 0 .8-.1 1-.2s.3-.3.3-.6-.1-.4-.3-.6c-.2-.1-.5-.2-1-.2h-1.3zm0 4.5h1.4c.5 0 .9-.1 1.1-.2.2-.1.3-.4.3-.7 0-.3-.1-.6-.3-.7-.3-.1-.6-.2-1.2-.2h-1.3v1.8zm9.3-2.9c1 0 1.6.1 2.2.4s.8.8.8 1.5c0 .6-.3 1.1-.8 1.5-.5.3-1.2.5-2.2.5h-3.4V22h1.7v2.7l1.7-.1zm-1.7 2.9h1.3c.5 0 .9-.1 1.1-.2.3-.1.4-.4.4-.7 0-.3-.1-.5-.4-.7-.3-.1-.6-.2-1.1-.2h-1.3v1.8zm5.5 1V22h1.7v6.5h-1.7zm5-6.5v2.9c0 .2 0 .5-.1.9 0 .4-.1.7-.1.8l2.7-4.7h1.7v6.6H88v-3.3c0-.2 0-.4.1-.8 0-.3.1-.5.1-.6l-2.7 4.7h-1.8V22h1.7zm1.4-.6c-.8 0-1.4-.2-1.8-.5-.4-.3-.6-.8-.6-1.6h1.3c.1.8.4 1.2 1.1 1.2s1.1-.4 1.1-1.2h1.3c-.1.7-.3 1.2-.6 1.6-.4.3-1 .5-1.8.5z"/><path class="st1" d="M42.1 45.9v-2.5h-6.6v-8.6h1.8v7h3.4v-7h1.7v7h1.2v3.9l-1.5.2z"/><path class="st0" d="M47.5 43.6c-1 0-1.7-.3-2.3-.9-.5-.6-.8-1.5-.8-2.5 0-1.1.3-1.9.8-2.5.5-.6 1.3-.9 2.3-.9 1 0 1.6.3 2.2 1s.8 1.5.8 2.7v.1h-4.2c0 .6.1 1.1.4 1.5s.6.5 1 .5c.6 0 1-.3 1.1-.8l1.6.1c-.6 1-1.5 1.7-2.9 1.7zm0-5.8c-.4 0-.7.1-1 .4-.2.3-.3.7-.3 1.1h2.5c-.1-.5-.2-1-.4-1.2-.1-.2-.5-.3-.8-.3zm5.9-.9v2.6h2.3v-2.6h1.7v6.5h-1.7v-2.8h-2.3v2.8h-1.7v-6.5h1.7zm5.2 0H64V38h-1.8v5.4h-1.7V38h-1.8c-.1 0-.1-1.1-.1-1.1zm12.8 3.2c0 1.1-.2 2-.6 2.5-.4.6-1.1.9-1.8.9-.4 0-.9-.1-1.2-.3-.3-.2-.6-.5-.8-.9h-.1c0 .1.1.5.1 1.1v2.5h-1.7v-7.6c0-.6 0-1.1-.1-1.5h1.6c0 .1.1.2.1.4v.6c.4-.8 1.1-1.2 2.1-1.2.8 0 1.3.3 1.8.9.5.7.6 1.5.6 2.6zm-1.7 0c0-1.5-.4-2.2-1.3-2.2-.4 0-.8.2-1 .6-.3.4-.4 1-.4 1.6 0 .7.1 1.3.4 1.6.3.4.6.6 1 .6.8.1 1.3-.7 1.3-2.2z"/></svg>