<svg id="Слой_1" xmlns="http://www.w3.org/2000/svg" viewBox="0 0 80 30.6"><style>.st0{fill:#40bffc}.st1{fill:#d22856}</style><path class="st0" d="M8.3 6.3C7.5 5.7 7 5.1 7 4.5c.2-1.7 4.1-2.7 8.8-2.2 1.1.1 2.2.3 3.2.5-1.1-.4-2.5-.6-3.9-.7-4.7-.5-8.6.5-8.8 2.2 0 .7.6 1.4 1.7 2.1.2.1.4 0 .3-.1z"/><path class="st1" d="M3.8 11.7c-.7-.7-1.1-1.4-1-2 .3-2.5 6.2-4 13.3-3.3 1.7.2 3.4.5 4.8.8-1.8-.5-3.7-.9-5.9-1.1-7-.7-13 .8-13.2 3.3-.1.9.5 1.7 1.5 2.5.2 0 .6.3.5-.2z"/><path class="st0" d="M3.4 18c-1.5-1-2.4-2.1-2.3-3.2.3-2.8 6.8-4.4 14.6-3.6 1.9.2 3.7.5 5.3.9-1.9-.5-4.1-1-6.4-1.2-7.8-.8-14.3.9-14.6 3.6-.1 1.2 1.1 2.5 3.1 3.7.3.1.6.1.3-.2z"/><path class="st1" d="M5.3 24.3c-2.3-1.1-3.7-2.4-3.6-3.7.3-2.5 6.2-4 13.3-3.3 1.7.2 3.4.5 4.8.8-1.8-.5-3.7-.9-5.9-1.1-7.1-.7-13.1.8-13.3 3.3-.2 1.5 1.7 3 4.6 4.1.3.2.4 0 .1-.1z"/><path class="st0" d="M8.4 28.1c-1.9-.7-3.1-1.8-3-2.7.2-1.7 4.1-2.7 8.8-2.2 1.1.1 2.2.3 3.2.5-1.1-.4-2.5-.6-3.9-.7-4.7-.5-8.6.5-8.8 2.2 0 1.1 1.4 2.2 3.7 2.9.2.2.2 0 0 0z"/><path class="st0" d="M7.3 14c1.2-5.8 4.3-10.7 8.4-14-4.6 3-8.2 7.8-9.4 13.8-1.2 5.9.1 11.7 3.2 16.3C7 25.5 6.1 19.8 7.3 14zm6.3 1C14.8 9.2 16.8 4.1 19.2.5c-2.6 3.4-4.8 8.5-6.1 14.4S12 26.4 13 30.6c-.7-4.3-.6-9.8.6-15.6z"/><path class="st1" d="M27 5.8c0 .5-.1 1-.3 1.4-.2.4-.5.7-.9.9-.4.2-.9.3-1.4.3-.8 0-1.5-.2-2-.7-.5-.5-.7-1.1-.7-2s.2-1.5.7-2 1.1-.7 2-.7c.8 0 1.5.2 2 .7s.6 1.2.6 2.1zm-1.1 0c0-.6-.1-1-.4-1.3s-.7-.5-1.2-.5-.9.2-1.1.5c-.3.3-.4.8-.4 1.3 0 .6.2 1 .4 1.4.3.3.7.5 1.1.5.5 0 .9-.2 1.1-.5.3-.4.5-.8.5-1.4z"/><path class="st0" d="M29.9 4.6c.6 0 1.1.2 1.4.5.3.3.4.8.4 1.4 0 .7-.2 1.1-.5 1.5-.4.3-.9.5-1.5.5-.7 0-1.2-.2-1.5-.6-.3-.4-.5-1-.5-1.8 0-.4 0-.8.1-1.1.1-.3.2-.6.3-.8.2-.2.3-.4.5-.6.2-.2.5-.3.8-.4.3-.1 1-.2 2.1-.4v.9c-.5 0-1.1.1-1.5.2-.5.1-.9.2-1.1.3-.2.1-.4.3-.5.5-.1.2-.2.6-.2 1 .3-.7.9-1.1 1.7-1.1zm.7 2c0-.4-.1-.7-.2-.9-.2-.2-.4-.3-.7-.3-.4 0-.6.1-.7.3s-.2.5-.2.9.1.7.2.9.4.3.7.3c.4 0 .6-.1.7-.3.1-.2.2-.6.2-.9zm4.8-.6c.6 0 1 .1 1.3.3.3.2.4.5.4.9s-.1.7-.4.9c-.3.2-.7.3-1.3.3h-2V5.1H32v-.7h2.5V6h.9zm-.9 1.8h.7c.3 0 .5 0 .7-.1.2-.1.2-.2.2-.4s-.1-.4-.2-.5c-.1-.1-.4-.1-.7-.1h-.7v1.1zm5.1.7c-.6 0-1.1-.2-1.4-.5-.3-.4-.5-.9-.5-1.6s.2-1.2.5-1.5c.3-.4.8-.5 1.4-.5.6 0 1 .2 1.3.6.3.4.5.9.5 1.7h-2.6c0 .4.1.7.2.9s.4.3.6.3c.4 0 .6-.2.7-.5l1 .1c-.2.6-.8 1-1.7 1zm0-3.5c-.2 0-.4 0-.6.2-.1.2-.2.4-.2.7h1.6c0-.3-.1-.6-.2-.7s-.3-.2-.6-.2zm3.1 3.4v1.5h-.9V7.7h.5c.2-.3.4-.7.5-1.2s.2-1.2.4-2.1H46v3.3h.5v2.2h-.9V8.4h-2.9zm2.1-3.3h-.9c-.2 1.3-.4 2.1-.6 2.6h1.5V5.1zm3.3-.7v2.8l1.7-2.9h1.1v4h-1v-2-.5-.4l-1.6 2.9h-1.1v-4h.9zm4.7 0V6h1.4V4.4h1.1v4h-1.1V6.7h-1.4v1.7h-1.1v-4h1.1zm5.3 4.1c-.6 0-1.1-.2-1.4-.5-.3-.4-.5-.9-.5-1.6s.2-1.2.5-1.5c.3-.4.8-.5 1.4-.5.6 0 1 .2 1.3.6.3.4.5.9.5 1.7h-2.6c0 .4.1.7.2.9.2.2.4.3.6.3.4 0 .6-.2.7-.5l1 .1c-.3.6-.9 1-1.7 1zm0-3.5c-.2 0-.4.1-.6.3-.1.2-.2.4-.2.7h1.6c0-.3-.1-.6-.2-.7-.2-.3-.4-.3-.6-.3zm3.6-.6V6h1.4V4.4h1.1v4h-1.1V6.7h-1.4v1.7h-1.1v-4h1.1zm4.6 0V6h1.4V4.4h1.1v4h-1.1V6.7h-1.4v1.7h-1.1v-4h1.1zM71.9 6c.6 0 1 .1 1.3.3.3.2.5.5.5.9s-.2.7-.5.9c-.3.2-.7.3-1.3.3h-2.1v-4h1.1V6h1zm-1 1.8h.8c.3 0 .5 0 .7-.1.2-.1.2-.2.2-.4s-.1-.3-.2-.4c-.2-.1-.4-.1-.7-.1h-.8v1zm3.4.6v-4h1.1v4h-1.1zm3-4v2.8L79 4.3h1v4h-1v-2-.5-.4l-1.6 2.9h-1.1v-4h1v.1zm.9-.4c-.5 0-.9-.1-1.1-.3-.2-.2-.4-.5-.4-1h.8c0 .5.2.7.7.7.4 0 .7-.2.7-.7h.8c0 .4-.2.7-.4 1-.2.2-.6.3-1.1.3z"/><path class="st1" d="M26.5 16.1c0 .5-.2.9-.5 1.1-.4.3-.9.4-1.5.4h-2.6v-5.2h2.4c.6 0 1.1.1 1.4.4.3.2.5.5.5 1 0 .3-.1.5-.2.7-.2.2-.4.4-.7.4.4 0 .7.2 1 .4.1.1.2.4.2.8zm-1.4-2.3c0-.2-.1-.4-.2-.5-.2-.1-.4-.2-.7-.2H23v1.3h1.2c.3 0 .5 0 .7-.2.1 0 .2-.2.2-.4zm.3 2.2c0-.5-.4-.7-1.1-.7H23v1.5h1.4c.4 0 .6-.1.8-.2s.2-.4.2-.6z"/><path class="st0" d="M28.4 13.5v2.8l1.7-2.9h.9v4.1h-1v-2-.5-.4l-1.6 2.9h-1.1v-4h1.1zm5 4.1c-.4 0-.8-.1-1.1-.3-.3-.2-.5-.5-.5-.9l.9-.2c0 .2.1.3.3.4.1.1.3.2.5.2s.4 0 .5-.2.2-.2.2-.4-.1-.4-.2-.5c-.2-.1-.5-.2-.9-.2v-.7c.4 0 .6 0 .8-.1.2-.1.2-.2.2-.4s0-.3-.2-.4c-.1-.1-.2-.1-.4-.1s-.4 0-.5.2c-.1.1-.2.2-.2.4l-.9-.1c.1-.4.2-.6.5-.8s.7-.3 1.1-.3c.4 0 .8.1 1.1.3s.4.4.4.7c0 .2-.1.4-.2.6-.2.2-.4.3-.7.4.3 0 .6.2.8.3.2.2.3.4.3.7 0 .4-.2.7-.5.9-.3.4-.8.5-1.3.5zm6.1-2.1c0 .7-.2 1.2-.5 1.5-.4.4-.9.5-1.5.5s-1.1-.2-1.5-.5c-.4-.4-.5-.9-.5-1.5 0-.7.2-1.2.5-1.5.4-.4.9-.5 1.5-.5.7 0 1.2.2 1.5.5.4.4.5.9.5 1.5zm-1.1 0c0-.5-.1-.8-.2-1.1-.2-.2-.4-.3-.7-.3-.6 0-.9.5-.9 1.4 0 .5.1.8.2 1s.4.4.7.4c.6 0 .9-.4.9-1.4zm4-2c1.2 0 1.8.4 1.8 1 0 .2-.1.4-.2.6s-.4.3-.7.3c.4 0 .6.2.7.3.2.2.3.4.3.7 0 .4-.2.7-.4.9-.3.2-.7.3-1.2.3h-2.1v-4.1h1.8zm-1 .7v1h.8c.3 0 .5 0 .6-.1.1-.1.2-.2.2-.4s-.1-.3-.2-.4-.3-.1-.6-.1h-.8zm0 2.7h.9c.3 0 .5 0 .7-.1.1-.1.2-.2.2-.4s-.1-.4-.2-.5c-.2-.1-.4-.1-.7-.1h-.8c-.1 0-.1 1.1-.1 1.1zm5.7-1.8c.6 0 1 .1 1.3.3.3.2.5.5.5.9s-.2.7-.5.9c-.3.2-.7.3-1.3.3H45v-4h1.1v1.6h1zm-1 1.8h.8c.3 0 .5 0 .7-.1.2-.1.2-.2.2-.4s-.1-.3-.2-.4c-.2-.1-.4-.1-.7-.1h-.8v1zm3.4.7v-4h1.1v4h-1.1zm3.1-4.1v2.8l1.7-2.9h1.1v4.1h-1v-2-.5-.4l-1.6 2.9h-1.1v-4h.9zm.8-.3c-.5 0-.9-.1-1.1-.3-.2-.2-.4-.5-.4-1h.8c0 .5.2.7.7.7.4 0 .7-.2.7-.7h.8c0 .4-.2.7-.4 1-.2.1-.6.3-1.1.3z"/><path class="st1" d="M25.9 28.3v-1.5h-4.1v-5.3H23v4.3h2.1v-4.3h1.1v4.3h.7v2.4l-1 .1z"/><path class="st0" d="M29.2 26.8c-.6 0-1.1-.2-1.4-.5-.3-.4-.5-.9-.5-1.6 0-.7.2-1.2.5-1.5.3-.4.8-.5 1.4-.5.6 0 1 .2 1.3.6s.5.9.5 1.7h-2.6c0 .4.1.7.2.9.2.2.4.3.6.3.4 0 .6-.2.7-.5l1 .1c-.2.6-.8 1-1.7 1zm0-3.5c-.2 0-.4.1-.6.3-.1.2-.2.4-.2.7H30c0-.3-.1-.6-.2-.7-.2-.3-.4-.3-.6-.3zm3.6-.6v1.6h1.4v-1.6h1.1v4h-1.1V25h-1.4v1.7h-1.1v-4h1.1zm3.3 0h3.3v.7h-1.1v3.3h-1.1v-3.3h-1.1v-.7zm7.9 2c0 .7-.1 1.2-.4 1.6-.3.4-.7.5-1.1.5-.3 0-.5-.1-.7-.2-.2-.1-.4-.3-.5-.5v2.3h-1.1v-4.7-.9h1v.7c.2-.5.7-.7 1.3-.7.5 0 .8.2 1.1.5.2.2.4.7.4 1.4zm-1.1 0c0-.9-.3-1.4-.8-1.4-.3 0-.5.1-.6.4-.2.2-.2.6-.2 1s.1.8.2 1c.2.2.4.4.6.4.5 0 .8-.5.8-1.4z"/></svg>