<svg id="Capa_1" xmlns="http://www.w3.org/2000/svg" viewBox="0 0 510 510"><style>.st0{fill:#d22856}.st1{fill:#dedede}</style><path class="st0" d="M397.1 254.9c0-11.2-10-21-21.3-21h-78.2l-71.1-112.2H198l35.5 112.2h-78.2L134 205.8h-21.2l14.2 49.1-14.2 49.1h21.3l21.3-28.1h78.2l-35.5 112.2h28.5l71.1-112.2h78.2c11.3 0 21.2-9.9 21.2-21z" id="flights"/><path class="st0" d="M249 445.9c-51 0-98.9-19.9-135-55.9s-55.9-84-55.9-135S78 156.1 114 120s84-55.9 135-55.9S347.9 84 384 120s55.9 84 55.9 135S420 353.9 384 390s-84 55.9-135 55.9zm0-367.4c-97.3 0-176.5 79.2-176.5 176.5S151.7 431.5 249 431.5 425.5 352.3 425.5 255 346.3 78.5 249 78.5z"/><path class="st1" d="M249 491.2c-130.3 0-236.2-106-236.2-236.2S118.7 18.8 249 18.8s236.2 106 236.2 236.2S379.3 491.2 249 491.2zm0-427.6C143.4 63.6 57.6 149.4 57.6 255S143.5 446.4 249 446.4c105.6 0 191.4-85.9 191.4-191.4 0-105.6-85.8-191.4-191.4-191.4z"/></svg>